<svg xmlns="http://www.w3.org/2000/svg" xmlns:xlink="http://www.w3.org/1999/xlink" aria-hidden="true" data-bbox="3.87 1.73 277.38 68.03" data-type="color" viewBox="3.87 1.73 277.38 68.03">
  <path fill="#fff" d="M88.91 17.76v9.05h-.71c-.23-1.74-.65-3.12-1.24-4.15-.6-1.03-1.45-1.85-2.56-2.45-1.11-.61-2.25-.91-3.44-.91-1.34 0-2.44.41-3.32 1.23-.88.82-1.31 1.75-1.31 2.79 0 .8.28 1.53.83 2.18.8.97 2.7 2.25 5.69 3.86 2.45 1.31 4.12 2.32 5.01 3.02.89.7 1.58 1.53 2.06 2.48s.73 1.95.73 2.99c0 1.98-.77 3.69-2.31 5.13-1.54 1.43-3.52 2.15-5.94 2.15-.76 0-1.47-.06-2.14-.17-.4-.07-1.23-.3-2.48-.71-1.25-.4-2.05-.61-2.38-.61-.32 0-.58.1-.76.29-.19.19-.33.59-.42 1.2h-.71v-8.98h.71c.33 1.88.78 3.29 1.35 4.22.57.93 1.43 1.71 2.6 2.33 1.16.62 2.44.93 3.83.93 1.61 0 2.88-.43 3.81-1.27.93-.85 1.4-1.85 1.4-3.01 0-.64-.18-1.29-.53-1.95-.35-.65-.9-1.27-1.65-1.83-.5-.39-1.87-1.21-4.11-2.46s-3.83-2.26-4.78-3c-.95-.75-1.66-1.57-2.15-2.47-.49-.9-.73-1.89-.73-2.97 0-1.88.72-3.5 2.16-4.85 1.44-1.36 3.28-2.04 5.5-2.04 1.39 0 2.86.34 4.42 1.02.72.32 1.23.48 1.52.48.34 0 .61-.1.82-.3.21-.2.38-.6.51-1.21h.72zm13.53 22.97v-6.74c-1.94.77-3.2 1.32-3.76 1.64-1.02.57-1.74 1.16-2.18 1.77a3.42 3.42 0 0 0-.66 2.03c0 .93.28 1.69.83 2.31.55.61 1.19.92 1.91.92.98 0 2.27-.64 3.86-1.93m0 1.25c-1.82 1.4-2.95 2.21-3.42 2.43-.7.32-1.43.48-2.22.48-1.22 0-2.23-.42-3.02-1.25-.79-.84-1.19-1.94-1.19-3.3 0-.86.19-1.61.58-2.24.53-.87 1.44-1.7 2.75-2.47 1.31-.77 3.48-1.71 6.52-2.82v-.7c0-1.76-.28-2.97-.84-3.63-.56-.66-1.37-.98-2.44-.98-.81 0-1.46.22-1.93.66-.49.44-.74.94-.74 1.51l.04 1.12c0 .59-.15 1.05-.45 1.37-.3.32-.7.48-1.19.48-.48 0-.87-.17-1.17-.5-.3-.34-.45-.79-.45-1.37 0-1.11.57-2.12 1.7-3.05 1.13-.93 2.72-1.39 4.77-1.39 1.57 0 2.86.26 3.86.79.76.4 1.32 1.02 1.68 1.87.23.55.35 1.69.35 3.4v6c0 1.69.03 2.72.1 3.1.07.38.17.64.32.76.15.13.32.19.51.19.2 0 .39-.04.54-.14.27-.17.79-.64 1.56-1.41v1.08c-1.44 1.93-2.82 2.9-4.13 2.9-.63 0-1.13-.22-1.51-.66-.37-.42-.56-1.17-.58-2.23" data-color="1"/>
  <path fill="#fff" d="M113.64 30.09c1.29-1.29 2.05-2.03 2.28-2.22.58-.49 1.2-.87 1.87-1.14.67-.27 1.33-.41 1.99-.41 1.11 0 2.06.32 2.86.96.8.65 1.33 1.58 1.6 2.8 1.32-1.54 2.44-2.56 3.36-3.04.91-.48 1.85-.72 2.82-.72.94 0 1.77.24 2.5.72s1.3 1.27 1.73 2.36c.28.75.42 1.92.42 3.51v7.6c0 1.11.08 1.87.25 2.28.13.28.37.53.71.72.35.2.91.3 1.7.3v.7H129v-.7h.37c.76 0 1.35-.15 1.78-.44.3-.2.51-.53.64-.98.05-.22.08-.84.08-1.87v-7.6c0-1.44-.17-2.46-.52-3.05-.5-.82-1.31-1.23-2.41-1.23-.68 0-1.37.17-2.06.51-.69.34-1.52.97-2.5 1.9l-.04.21.04.83v8.43c0 1.21.07 1.96.2 2.26.13.3.39.54.76.74.37.2 1.01.3 1.91.3v.7h-8.94v-.7c.98 0 1.65-.12 2.02-.35.37-.23.62-.58.76-1.04.06-.22.1-.86.1-1.91v-7.6c0-1.44-.21-2.48-.64-3.11-.57-.82-1.36-1.24-2.38-1.24-.69 0-1.38.19-2.06.56-1.07.57-1.89 1.2-2.47 1.91v9.48c0 1.16.08 1.91.24 2.26.16.35.4.61.71.78.32.17.96.26 1.92.26v.7h-8.74v-.7c.81 0 1.38-.09 1.7-.26.32-.17.57-.45.73-.83.17-.38.25-1.12.25-2.21v-6.76c0-1.94-.06-3.2-.17-3.76-.09-.42-.23-.72-.42-.88-.19-.16-.46-.24-.79-.24-.36 0-.79.1-1.29.29l-.29-.7 5.33-2.16h.83v3.78z" data-color="1"/>
  <path fill="#fff" d="M142.46 31.68v6.6c0 1.43.06 2.37.17 2.82.18.75.62 1.4 1.32 1.97.7.57 1.59.85 2.65.85 1.29 0 2.33-.5 3.13-1.51 1.04-1.31 1.56-3.16 1.56-5.54 0-2.7-.59-4.78-1.78-6.23-.82-1.01-1.8-1.51-2.93-1.51-.62 0-1.23.15-1.83.46-.45.23-1.22.93-2.29 2.09m-6.18-3.07 5.44-2.2h.73v4.13c.91-1.56 1.83-2.65 2.75-3.27.92-.62 1.89-.94 2.9-.94 1.78 0 3.26.7 4.44 2.08 1.46 1.7 2.18 3.91 2.18 6.64 0 3.05-.88 5.57-2.63 7.57-1.44 1.64-3.25 2.45-5.44 2.45-.95 0-1.78-.14-2.47-.4-.51-.19-1.09-.58-1.74-1.16v5.39c0 1.21.07 1.98.22 2.31.15.33.4.59.77.78.37.19 1.03.29 2 .29V53h-9.26v-.72h.48c.71.01 1.31-.12 1.82-.4.24-.14.43-.37.57-.68.14-.32.2-1.12.2-2.4V32.06c0-1.15-.05-1.87-.15-2.18-.1-.31-.27-.54-.49-.7-.22-.16-.53-.23-.92-.23-.31 0-.7.09-1.18.27l-.22-.61zm25.54-11.53v23.45c0 1.11.08 1.84.24 2.2.16.36.41.63.74.82.33.19.96.28 1.87.28v.69H156v-.69c.81 0 1.36-.08 1.66-.25.3-.17.53-.44.7-.83.17-.39.25-1.13.25-2.22V24.48c0-2-.05-3.22-.14-3.68-.09-.46-.23-.77-.43-.94-.2-.17-.45-.25-.76-.25-.33 0-.76.1-1.27.31l-.33-.68 5.27-2.16h.87zm6.3 15.31h8.18c-.07-1.13-.2-1.93-.4-2.39-.32-.72-.8-1.29-1.44-1.7-.64-.41-1.3-.62-2-.62-1.07 0-2.02.41-2.87 1.24s-1.33 1.99-1.47 3.47m0 1.12c-.01 2.63.62 4.68 1.91 6.18 1.29 1.49 2.8 2.24 4.54 2.24 1.16 0 2.17-.32 3.02-.96.86-.64 1.57-1.73 2.15-3.27l.6.39c-.27 1.76-1.05 3.37-2.35 4.82-1.3 1.45-2.93 2.17-4.89 2.17-2.12 0-3.94-.83-5.45-2.48-1.51-1.65-2.27-3.88-2.27-6.67 0-3.02.77-5.38 2.32-7.07 1.55-1.69 3.5-2.54 5.84-2.54 1.98 0 3.61.65 4.88 1.96s1.91 3.05 1.91 5.24h-12.21zm30.68.83-4.44-10.58-4.56 10.58h9zm.54 1.43H189.2l-1.77 4.13c-.44 1.02-.66 1.77-.66 2.28 0 .4.19.75.57 1.05.38.3 1.2.5 2.46.59v.71h-8.24v-.71c1.09-.19 1.8-.44 2.12-.75.66-.62 1.38-1.87 2.18-3.76l9.21-21.54h.68l9.11 21.77c.73 1.75 1.4 2.89 2 3.41.6.52 1.43.81 2.5.88v.71h-10.33v-.71c1.04-.05 1.75-.23 2.11-.52.37-.3.55-.66.55-1.08 0-.57-.26-1.46-.77-2.68l-1.58-3.78zm21.55-9.44v6.02h-.64c-.49-1.89-1.12-3.18-1.88-3.86-.77-.68-1.74-1.02-2.92-1.02-.9 0-1.63.24-2.18.71-.55.48-.83 1-.83 1.58 0 .72.21 1.34.62 1.85.4.53 1.21 1.09 2.43 1.68l2.82 1.37c2.61 1.27 3.92 2.95 3.92 5.04 0 1.61-.61 2.9-1.82 3.89-1.22.98-2.58 1.48-4.08 1.48-1.08 0-2.32-.19-3.71-.58-.42-.13-.77-.19-1.04-.19-.3 0-.53.17-.69.5h-.64v-6.31h.64c.36 1.8 1.05 3.16 2.07 4.07 1.02.91 2.16 1.37 3.42 1.37.89 0 1.61-.26 2.17-.78.56-.52.84-1.15.84-1.88 0-.89-.31-1.63-.94-2.24-.62-.61-1.87-1.37-3.73-2.3-1.86-.93-3.09-1.76-3.67-2.51-.58-.73-.87-1.66-.87-2.78 0-1.45.5-2.67 1.5-3.65s2.29-1.47 3.87-1.47c.7 0 1.54.15 2.53.44.66.19 1.09.29 1.31.29.21 0 .37-.04.48-.14.12-.09.25-.29.41-.6h.61zm13.8 0v6.02h-.64c-.49-1.89-1.12-3.18-1.88-3.86-.77-.68-1.74-1.02-2.92-1.02-.9 0-1.63.24-2.18.71-.55.48-.83 1-.83 1.58 0 .72.21 1.34.62 1.85.4.53 1.21 1.09 2.43 1.68l2.82 1.37c2.61 1.27 3.92 2.95 3.92 5.04 0 1.61-.61 2.9-1.82 3.89-1.22.98-2.58 1.48-4.08 1.48-1.08 0-2.32-.19-3.71-.58-.42-.13-.77-.19-1.04-.19-.3 0-.53.17-.69.5h-.64v-6.31h.64c.36 1.8 1.05 3.16 2.07 4.07 1.02.91 2.16 1.37 3.42 1.37.89 0 1.61-.26 2.17-.78.56-.52.84-1.15.84-1.88 0-.89-.31-1.63-.94-2.24-.62-.61-1.87-1.37-3.73-2.3-1.87-.93-3.09-1.76-3.67-2.51-.58-.73-.87-1.66-.87-2.78 0-1.45.5-2.67 1.5-3.65s2.29-1.47 3.87-1.47c.7 0 1.54.15 2.53.44.66.19 1.09.29 1.31.29.21 0 .37-.04.48-.14.12-.09.25-.29.41-.6h.61zm6.87-9.25c.54 0 1 .19 1.38.57.38.38.57.84.57 1.38 0 .54-.19 1-.57 1.39-.38.38-.84.58-1.38.58-.54 0-1.01-.19-1.39-.58-.39-.39-.58-.85-.58-1.39 0-.54.19-1 .57-1.38.38-.38.85-.57 1.4-.57m1.61 9.25v14.21c0 1.11.08 1.84.24 2.21.16.37.4.64.71.82.32.18.89.27 1.73.27v.7h-8.59v-.7c.86 0 1.44-.08 1.74-.25.29-.17.53-.44.7-.83.17-.39.26-1.13.26-2.22v-6.81c0-1.92-.06-3.16-.17-3.73-.09-.41-.23-.7-.42-.86-.19-.16-.46-.24-.79-.24-.36 0-.8.09-1.31.29l-.27-.7 5.33-2.16h.84zm13.93 0v6.02h-.64c-.49-1.89-1.12-3.18-1.88-3.86-.77-.68-1.74-1.02-2.92-1.02-.9 0-1.63.24-2.18.71-.55.48-.83 1-.83 1.58 0 .72.21 1.34.62 1.85.4.53 1.21 1.09 2.43 1.68l2.82 1.37c2.61 1.27 3.92 2.95 3.92 5.04 0 1.61-.61 2.9-1.82 3.89-1.22.98-2.58 1.48-4.08 1.48-1.08 0-2.32-.19-3.71-.58-.42-.13-.77-.19-1.04-.19-.3 0-.53.17-.69.5h-.64v-6.31h.64c.36 1.8 1.05 3.16 2.07 4.07 1.02.91 2.15 1.37 3.42 1.37.89 0 1.61-.26 2.17-.78.56-.52.84-1.15.84-1.88 0-.89-.31-1.63-.94-2.24-.62-.61-1.87-1.37-3.73-2.3-1.86-.93-3.09-1.76-3.67-2.51-.58-.73-.87-1.66-.87-2.78 0-1.45.5-2.67 1.5-3.65s2.29-1.47 3.87-1.47c.7 0 1.54.15 2.53.44.66.19 1.09.29 1.31.29.21 0 .37-.04.48-.14.12-.09.25-.29.41-.6h.61zm7.51-5.29v5.81h4.13v1.35h-4.13v11.46c0 1.14.16 1.92.49 2.32.33.4.75.6 1.26.6.42 0 .84-.13 1.23-.4.4-.26.71-.65.93-1.17h.75c-.45 1.26-1.09 2.21-1.91 2.85-.82.64-1.67.96-2.55.96-.59 0-1.17-.16-1.74-.49-.57-.33-.98-.8-1.26-1.41-.27-.61-.4-1.55-.4-2.83V28.2h-2.8v-.64c.71-.28 1.43-.76 2.17-1.44.74-.68 1.4-1.48 1.98-2.4.3-.49.71-1.38 1.24-2.68h.61zm11.57.1 1.69 3.54 1.64-3.54h1.73v.23c-.23 0-.39.03-.46.07-.08.04-.13.11-.17.2-.04.09-.05.28-.05.57v2.9c0 .35.04.57.12.66.08.09.27.14.57.15v.22h-2.46v-.22c.24 0 .41-.03.49-.07a.46.46 0 0 0 .19-.2c.04-.09.06-.26.06-.53v-3.04l-1.9 4.07h-.2l-1.91-4.02v2.98c0 .28.02.46.05.55.04.09.09.15.17.2.08.05.2.07.36.07h.22v.22h-1.89v-.22c.23 0 .39-.02.47-.06.08-.04.14-.1.18-.19.04-.09.06-.27.06-.56v-2.88c0-.31-.02-.51-.05-.59a.334.334 0 0 0-.18-.19c-.08-.04-.24-.07-.47-.07v-.23h1.74zm-6.84 0h4.5l.14 1.24h-.21c-.04-.3-.15-.52-.33-.66-.17-.14-.47-.21-.88-.21h-.46v3.58c0 .35.04.57.12.66.08.09.26.15.53.16v.22h-2.31v-.22c.27-.02.44-.08.51-.17.07-.09.11-.3.11-.64v-3.59h-.47c-.39 0-.67.07-.83.2-.17.13-.28.36-.34.68h-.21l.13-1.25z" data-color="1"/>
  <path fill="#00b3d1" d="m154.89 52.45.9-3.9h1.24l-1.54 5.65h-1.05l-1.21-3.88-1.19 3.88h-1.05l-1.54-5.65h1.24l.91 3.86 1.16-3.86h.95l1.18 3.9zm8.15 0 .9-3.9h1.24l-1.54 5.65h-1.04l-1.22-3.88-1.19 3.88h-1.04l-1.55-5.65h1.24l.91 3.86 1.16-3.86h.96l1.17 3.9zm8.16 0 .9-3.9h1.24l-1.55 5.65h-1.04l-1.21-3.88-1.19 3.88h-1.05l-1.54-5.65h1.23l.92 3.86 1.16-3.86h.95l1.18 3.9zm3.35.41c.24 0 .42.07.55.2.13.13.19.3.19.51 0 .2-.07.36-.19.49-.13.13-.31.2-.55.2-.23 0-.41-.06-.54-.19s-.2-.3-.2-.5.07-.37.19-.51c.13-.13.31-.2.55-.2m5.57-.2c0-.23-.09-.4-.28-.52-.19-.12-.49-.22-.93-.31-.43-.09-.79-.2-1.08-.35-.63-.31-.95-.75-.95-1.33 0-.49.21-.9.62-1.22s.93-.49 1.57-.49c.68 0 1.22.17 1.64.5.42.33.63.77.63 1.3h-1.27a.79.79 0 0 0-.27-.61c-.18-.16-.42-.24-.72-.24-.28 0-.51.06-.68.19-.18.13-.26.3-.26.52 0 .2.08.35.25.46s.49.22.99.33c.5.11.89.24 1.17.39s.5.33.63.55c.14.21.21.47.21.77 0 .51-.21.92-.63 1.24-.42.31-.97.47-1.66.47-.46 0-.88-.08-1.24-.25-.36-.17-.65-.4-.85-.69s-.3-.61-.3-.95h1.23c.02.3.13.53.34.69.21.16.49.24.83.24.33 0 .59-.06.76-.19.16-.13.25-.29.25-.5m5.93 1.54c-.06-.11-.1-.28-.15-.53-.4.42-.9.63-1.48.63-.57 0-1.03-.16-1.39-.49-.36-.32-.54-.72-.54-1.2 0-.6.22-1.07.67-1.39.45-.32 1.09-.48 1.92-.48h.78v-.37c0-.29-.08-.53-.25-.7-.16-.18-.41-.26-.75-.26-.29 0-.53.07-.71.22-.19.14-.28.33-.28.55h-1.27c0-.31.1-.6.31-.87s.49-.48.84-.63c.35-.15.75-.23 1.18-.23.66 0 1.19.17 1.58.5.39.33.6.8.61 1.4v2.55c0 .51.07.91.21 1.22v.09h-1.28zm-1.39-.92c.25 0 .49-.06.71-.18.22-.12.39-.29.5-.49v-1.07h-.68c-.47 0-.82.08-1.06.25-.24.16-.35.39-.35.7 0 .24.08.44.24.58.15.14.36.21.64.21m5.2-4.74.04.59c.4-.46.94-.69 1.63-.69.76 0 1.27.29 1.55.87.41-.58.99-.87 1.73-.87.62 0 1.09.17 1.39.52.3.34.46.85.47 1.52v3.71h-1.27v-3.68c0-.36-.08-.62-.24-.79-.16-.17-.41-.25-.78-.25-.29 0-.52.08-.71.23-.18.15-.31.36-.38.61v3.88h-1.27v-3.72c-.02-.67-.36-1-1.02-1-.51 0-.87.21-1.08.62v4.1h-1.27v-5.65h1.21zm13.27 2.89c0 .87-.2 1.57-.6 2.09-.4.52-.93.78-1.6.78-.62 0-1.12-.2-1.49-.61v2.68h-1.27v-7.83h1.17l.05.58c.37-.45.88-.68 1.52-.68.69 0 1.23.26 1.62.77.39.51.59 1.23.59 2.14v.08zm-1.27-.11c0-.56-.11-1.01-.34-1.34-.23-.33-.55-.5-.96-.5-.52 0-.89.21-1.12.64v2.51c.23.44.61.66 1.13.66.4 0 .72-.16.95-.49.23-.33.34-.82.34-1.48m3.9-5.15v8.02h-1.27v-8.02h1.27zm4.08 8.13c-.8 0-1.46-.25-1.96-.76s-.75-1.18-.75-2.02v-.16c0-.56.11-1.07.33-1.51.22-.44.52-.79.92-1.04.39-.25.83-.37 1.32-.37.77 0 1.36.24 1.78.74.42.49.63 1.19.63 2.08v.51h-3.69c.04.47.19.84.47 1.11.27.27.62.41 1.03.41.58 0 1.05-.23 1.42-.7l.68.65c-.23.34-.53.6-.91.79-.38.18-.8.27-1.27.27m-.15-4.84c-.35 0-.63.12-.84.37-.21.24-.35.58-.41 1.02h2.42v-.09c-.03-.42-.14-.75-.34-.96-.21-.23-.48-.34-.83-.34m6.99 4.74c-.06-.11-.11-.28-.15-.53-.4.42-.9.63-1.48.63-.57 0-1.03-.16-1.39-.49-.36-.32-.54-.72-.54-1.2 0-.6.22-1.07.67-1.39.45-.32 1.09-.48 1.92-.48h.78v-.37c0-.29-.08-.53-.25-.7-.16-.18-.41-.26-.75-.26-.29 0-.53.07-.71.22-.19.14-.28.33-.28.55h-1.27c0-.31.1-.6.31-.87.2-.27.48-.48.84-.63.35-.15.75-.23 1.18-.23.66 0 1.19.17 1.58.5.39.33.6.8.61 1.4v2.55c0 .51.07.91.21 1.22v.09h-1.28zm-1.39-.92c.25 0 .49-.06.71-.18.22-.12.39-.29.5-.49v-1.07h-.68c-.47 0-.82.08-1.06.25-.24.16-.35.39-.35.7 0 .24.08.44.24.58.15.14.37.21.64.21m7.17-.62c0-.23-.09-.4-.28-.52-.19-.12-.5-.22-.93-.31-.43-.09-.79-.2-1.08-.35-.63-.31-.95-.75-.95-1.33 0-.49.21-.9.62-1.22.41-.33.93-.49 1.57-.49.68 0 1.22.17 1.64.5.42.33.63.77.63 1.3h-1.27a.79.79 0 0 0-.27-.61c-.18-.16-.42-.24-.72-.24-.28 0-.51.06-.68.19-.18.13-.26.3-.26.52 0 .2.08.35.25.46.16.11.49.22.99.33.5.11.89.24 1.17.39s.49.33.63.55c.14.21.21.47.21.77 0 .51-.21.92-.63 1.24-.42.31-.97.47-1.65.47-.46 0-.88-.08-1.24-.25-.36-.17-.64-.4-.85-.69s-.3-.61-.3-.95h1.23c.02.3.13.53.34.69.21.16.49.24.83.24.33 0 .59-.06.76-.19.16-.13.24-.29.24-.5m5.73 0c0-.23-.09-.4-.28-.52-.19-.12-.5-.22-.93-.31-.43-.09-.79-.2-1.08-.35-.63-.31-.95-.75-.95-1.33 0-.49.21-.9.62-1.22.41-.33.93-.49 1.57-.49.68 0 1.22.17 1.64.5.42.33.63.77.63 1.3h-1.27a.79.79 0 0 0-.27-.61c-.18-.16-.42-.24-.72-.24-.28 0-.51.06-.68.19-.18.13-.26.3-.26.52 0 .2.08.35.25.46.16.11.49.22.99.33.5.11.89.24 1.17.39s.5.33.63.55c.14.21.21.47.21.77 0 .51-.21.92-.63 1.24-.42.31-.97.47-1.66.47-.46 0-.88-.08-1.24-.25-.36-.17-.64-.4-.85-.69s-.3-.61-.3-.95H226c.02.3.13.53.34.69.21.16.49.24.83.24.33 0 .59-.06.76-.19a.6.6 0 0 0 .26-.5m2.56-5.58c0-.2.06-.36.18-.49s.3-.19.53-.19c.23 0 .41.06.53.19s.19.29.19.49c0 .19-.06.35-.19.48s-.3.19-.53.19c-.23 0-.41-.06-.53-.19a.681.681 0 0 1-.18-.48m1.35 7.12h-1.27v-5.65h1.27v5.65zm4.75-1.54c0-.23-.09-.4-.28-.52-.19-.12-.49-.22-.93-.31-.43-.09-.79-.2-1.08-.35-.63-.31-.95-.75-.95-1.33 0-.49.21-.9.62-1.22.41-.33.93-.49 1.57-.49.68 0 1.22.17 1.64.5.42.33.63.77.63 1.3h-1.27a.79.79 0 0 0-.27-.61c-.18-.16-.42-.24-.72-.24-.28 0-.51.06-.68.19-.18.13-.26.3-.26.52 0 .2.08.35.24.46.16.11.49.22.99.33.5.11.89.24 1.17.39s.49.33.63.55c.14.21.21.47.21.77 0 .51-.21.92-.63 1.24-.42.31-.97.47-1.65.47-.46 0-.88-.08-1.24-.25-.36-.17-.64-.4-.85-.69s-.3-.61-.3-.95h1.23c.02.3.13.53.34.69.21.16.48.24.83.24.33 0 .59-.06.76-.19.16-.13.25-.29.25-.5m4.15-5.49v1.37h1v.94h-1v3.15c0 .22.04.37.13.47.08.1.24.14.46.14.15 0 .29-.02.44-.05v.98c-.29.08-.57.12-.84.12-.98 0-1.46-.54-1.46-1.61v-3.2h-.93v-.94h.93v-1.37H241zm2.96 5.69c.24 0 .42.07.55.2.13.13.19.3.19.51 0 .2-.07.36-.19.49-.13.13-.31.2-.55.2-.23 0-.41-.06-.54-.19-.13-.13-.2-.3-.2-.5s.07-.37.19-.51c.13-.13.31-.2.55-.2m4.72.43c.32 0 .58-.09.79-.28a.91.91 0 0 0 .33-.68h1.2c-.01.35-.12.68-.33.99-.21.3-.48.55-.84.72-.35.18-.73.27-1.14.27-.79 0-1.42-.26-1.88-.77-.46-.51-.7-1.22-.7-2.12v-.13c0-.86.23-1.55.69-2.07.46-.52 1.09-.78 1.88-.78.67 0 1.22.2 1.64.59s.65.91.67 1.54h-1.2c-.01-.32-.13-.59-.33-.8-.21-.21-.47-.31-.79-.31-.41 0-.73.15-.95.45-.22.3-.34.75-.34 1.36v.2c0 .61.11 1.07.33 1.37.23.3.55.45.97.45m3.24-1.97c0-.55.11-1.05.33-1.5.22-.44.53-.79.92-1.02.4-.24.85-.36 1.37-.36.76 0 1.38.24 1.86.74.48.49.73 1.14.77 1.95l.01.3c0 .56-.11 1.06-.32 1.49-.21.44-.52.78-.92 1.02s-.86.36-1.38.36c-.8 0-1.43-.27-1.91-.8s-.72-1.24-.72-2.12v-.06zm1.27.11c0 .58.12 1.04.36 1.37.24.33.58.49 1 .49.43 0 .76-.17 1-.5.24-.33.36-.82.36-1.47 0-.57-.12-1.02-.37-1.36-.25-.33-.58-.5-1-.5-.42 0-.74.16-.99.49-.23.33-.36.82-.36 1.48m6.46-2.89.04.59c.4-.46.94-.69 1.63-.69.76 0 1.27.29 1.55.87.41-.58.99-.87 1.73-.87.62 0 1.09.17 1.39.52.3.34.46.85.47 1.52v3.71h-1.27v-3.68c0-.36-.08-.62-.24-.79-.16-.17-.42-.25-.78-.25-.29 0-.52.08-.71.23-.18.15-.31.36-.38.61l.01 3.88h-1.27v-3.72c-.02-.67-.36-1-1.02-1-.51 0-.87.21-1.08.62v4.1h-1.27v-5.65h1.2z" data-color="2"/>
  <path fill="#4b5867" d="m5.68 5.91-.08 8.52 1.03.01c.96-.58 14.62-5.38 26.84-5.37 13.83.02 25.29 4.27 27.59 5.68l.83.01-.29-8.84-27.93-4.19L5.68 5.91z" data-color="3"/>
  <defs>
    <path id="a" d="M33.67 1.73 5.68 5.91l-.08 8.52 1.03.01c.96-.58 14.62-5.38 26.84-5.37 13.83.02 25.29 4.27 27.58 5.68l.84.01-.29-8.85-27.93-4.18z"/>
  </defs>
  <clipPath id="b">
    <use xlink:href="#a" overflow="visible"/>
  </clipPath>
  <path fill="#00b3d1" d="M61.88 1.73v13.02H5.6V1.73h56.28z" clip-path="url(#b)" data-color="2"/>
  <defs>
    <path id="c" d="M33.73 8.27h-.46v.01c-15.72.27-27.31 5.65-27.43 5.7l-.21.1-.03.22c-.3 2.7-.45 5.34-.45 7.91v.23C5.17 34.8 8.58 45.6 15.32 54.61c6.49 8.68 14.23 13.09 17.26 14.59.4.19 1.01.47 1.04.48l.18.08.17-.09s.57-.3 1-.52c3.04-1.51 10.8-5.97 17.26-14.68 8.11-10.92 11.34-24.43 9.62-40.17l-.03-.23-.21-.1c-.12-.05-11.71-5.43-27.43-5.7v-.01l-.45.01z"/>
  </defs>
  <clipPath id="d">
    <use xlink:href="#c" overflow="visible"/>
  </clipPath>
  <path fill="#00b3d1" d="M63.57 8.26v61.5H3.87V8.26h59.7z" clip-path="url(#d)" data-color="2"/>
  <path fill="#191346" d="M6.39 14.62c-1.65 15.5 1.57 28.78 9.59 39.5C22.36 62.66 29.96 67 32.94 68.47c.26.13.62.29.83.39.2-.11.55-.29.84-.43 2.98-1.48 10.61-5.86 16.97-14.43 7.94-10.69 11.13-23.94 9.49-39.37-1.63-.72-12.7-5.37-27.29-5.54h-.1c-14.6.17-25.66 4.81-27.29 5.53" data-color="4"/>
  <path fill="#fff" d="m10.41 7.77.36 1.12-.09.03c-.17-.27-.37-.45-.61-.55a1.04 1.04 0 0 0-1.44.9c-.03.28 0 .56.1.85.09.29.22.54.37.76.15.21.32.36.52.43.19.07.42.07.66-.01.2-.07.38-.17.52-.31.14-.14.27-.36.39-.63l.09.28c-.12.25-.26.45-.43.59-.17.15-.38.27-.65.35-.35.11-.67.14-.99.09-.31-.05-.58-.18-.81-.4-.24-.22-.4-.47-.5-.76-.1-.31-.11-.63-.04-.96.07-.33.22-.61.45-.85.22-.24.49-.41.8-.51.23-.07.48-.1.77-.08.16.01.27.01.31 0 .05-.02.09-.05.12-.1s.03-.12.01-.2l.09-.04zm2.26 1.3.26 1.02c.04.17.08.27.11.31.03.04.07.07.14.08.06.02.14.01.23-.01l.11-.03.02.09-1.72.44-.02-.09.11-.03c.1-.02.17-.06.22-.11.04-.03.06-.08.07-.14.01-.04-.01-.15-.05-.31l-.55-2.17c-.04-.17-.08-.27-.11-.31a.196.196 0 0 0-.14-.08.368.368 0 0 0-.23.01l-.11.03-.02-.09 1.72-.44.02.09-.11.03c-.1.02-.17.06-.22.11-.04.03-.06.08-.07.14-.01.04.01.15.05.31l.24.93 1.16-.29-.24-.93c-.04-.17-.08-.27-.11-.31-.03-.04-.07-.06-.14-.08s-.14-.02-.23.01l-.11.03-.02-.09 1.72-.44.02.09-.11.03c-.1.03-.17.06-.22.11-.04.03-.06.08-.07.14-.01.04.01.15.05.31l.55 2.17c.04.17.08.27.11.31.03.04.07.07.14.08.06.02.14.02.23-.01l.11-.03.02.09-1.72.44-.02-.09.11-.03c.1-.02.17-.06.22-.11.04-.03.06-.08.07-.14.01-.04-.01-.15-.05-.31l-.26-1.02-1.16.29zm4.68-.59-.74-1.04-.27 1.25 1.01-.21zm.12.17-1.17.24-.07.35c-.02.12-.03.21-.01.28.02.09.07.15.16.18.05.02.16.01.34-.01l.02.09-1.11.23-.03-.08c.12-.04.2-.11.26-.21.06-.1.12-.28.18-.56l.63-2.9.05-.01 1.77 2.48c.17.23.3.38.38.43.07.04.15.05.25.04l.02.09-1.61.34-.02-.09.07-.01c.13-.03.22-.06.26-.11.03-.03.04-.08.03-.12l-.03-.09c-.01-.01-.04-.07-.11-.17l-.26-.39zm3.57.2.02.09-1.75.32-.02-.09.11-.02c.1-.02.17-.05.22-.09.04-.03.06-.08.08-.14.01-.04 0-.15-.03-.32l-.4-2.2c-.03-.17-.06-.28-.09-.32a.228.228 0 0 0-.12-.08.432.432 0 0 0-.23-.01l-.11.02-.02-.09 1.75-.32.02.09-.11.02c-.1.02-.17.05-.22.09-.04.03-.07.08-.08.14-.01.04 0 .15.03.32l.4 2.2c.03.17.06.28.09.32s.07.07.13.09c.06.02.14.02.23.01l.1-.03zm.87-3.49 1.98 1.82-.23-1.44c-.03-.2-.08-.33-.15-.4-.09-.08-.23-.11-.42-.08l-.01-.09L24.19 5l.01.09c-.14.04-.23.08-.28.12-.04.04-.08.09-.09.16-.02.07-.01.18.01.34l.44 2.79-.08.01-2.71-2.44.33 2.13c.03.19.1.32.19.37s.21.07.32.05l.08-.01.02.09-1.18.2-.01-.09c.18-.03.31-.09.37-.17.06-.09.08-.22.05-.4l-.37-2.37-.09-.08a.612.612 0 0 0-.22-.15.605.605 0 0 0-.24-.01l-.01-.09 1.18-.18zm5.87-.68c-.31.03-.53.22-.66.55-.1.27-.13.65-.08 1.14.06.58.21.99.44 1.25.16.18.37.25.62.23.17-.02.31-.08.42-.17.14-.12.23-.3.29-.54.06-.24.07-.55.03-.93-.05-.45-.12-.78-.23-.99-.11-.21-.23-.36-.37-.44a.682.682 0 0 0-.46-.1m-.05-.16c.54-.08.99.03 1.36.33.37.3.58.7.64 1.2.05.43-.04.82-.26 1.17-.29.47-.73.73-1.34.8-.61.06-1.1-.09-1.47-.47-.3-.3-.47-.67-.52-1.12-.05-.5.07-.94.38-1.31.3-.36.71-.56 1.21-.6m3.58-.05.07 1.39.1-.01c.15-.01.27-.04.36-.09.09-.05.17-.13.23-.24.06-.11.1-.26.11-.44l.09-.01.09 1.7-.09.03c-.05-.32-.14-.53-.29-.62a.84.84 0 0 0-.49-.13l-.1.01.05 1.04c.01.17.02.28.05.32.02.04.06.08.12.11a.5.5 0 0 0 .23.04l.11-.01v.09l-1.77.09v-.09l.11-.01a.7.7 0 0 0 .24-.06c.04-.03.07-.07.09-.13.02-.04.02-.15.01-.32l-.11-2.23c-.01-.17-.02-.28-.04-.32a.26.26 0 0 0-.12-.11.5.5 0 0 0-.23-.04l-.11.01v-.09l2.86-.15.05.97h-.1c-.04-.23-.1-.39-.21-.5a.703.703 0 0 0-.43-.21c-.1-.02-.29-.02-.56-.01l-.32.02zm6.54-.2-.06 1.18h-.1c-.06-.31-.19-.55-.38-.73-.19-.17-.42-.27-.67-.28-.21-.01-.41.04-.59.15-.18.11-.32.27-.41.46-.12.25-.18.53-.2.83-.01.3.01.58.08.84.07.25.18.45.33.58.16.14.37.21.63.22.21.01.41-.03.59-.11s.38-.24.58-.46l-.01.29c-.2.19-.4.33-.61.4-.21.08-.45.11-.73.1-.36-.02-.68-.11-.96-.26-.27-.16-.48-.38-.62-.66s-.2-.57-.19-.88c.01-.32.11-.63.3-.91.18-.28.42-.5.72-.64.29-.15.6-.21.93-.2.24.01.49.07.75.19.15.07.25.1.29.1.05 0 .1-.02.14-.05.04-.04.07-.1.08-.18l.11.02zm.56.12 1.74.18-.01.09-.09-.01a.785.785 0 0 0-.28.01c-.05.02-.09.06-.12.1-.03.05-.05.17-.07.36l-.17 1.66c-.03.3-.03.51.01.61.04.1.1.19.2.27.1.08.23.12.39.14.18.02.34-.01.48-.08.14-.07.25-.17.32-.31.09-.14.15-.39.19-.75l.14-1.38c.01-.15.01-.26-.01-.33a.25.25 0 0 0-.11-.15.6.6 0 0 0-.31-.09l.01-.09 1.17.12-.01.09-.07-.01c-.1-.01-.18 0-.24.03s-.12.08-.15.16c-.03.05-.05.14-.06.28l-.13 1.28c-.04.4-.1.68-.17.85-.07.17-.22.32-.43.45-.22.13-.5.17-.85.14-.29-.03-.51-.09-.67-.19-.21-.13-.35-.28-.42-.46-.07-.17-.1-.4-.07-.68l.17-1.66c.02-.19.02-.32 0-.37s-.05-.09-.1-.13a.708.708 0 0 0-.29-.07l.01-.06zm6.09.66-.14 1.13-.1-.01a1.19 1.19 0 0 0-.25-.73.92.92 0 0 0-.57-.35c-.17-.02-.31 0-.42.08-.11.08-.18.17-.19.29-.01.07 0 .14.02.21.04.09.1.17.2.26.07.07.24.19.5.37.37.25.6.47.72.66.11.19.15.4.12.62a.99.99 0 0 1-.43.68c-.25.17-.54.23-.88.18-.11-.02-.2-.04-.3-.08-.09-.04-.2-.09-.34-.17a.553.553 0 0 0-.19-.08.19.19 0 0 0-.14.03c-.05.03-.1.07-.14.14l-.09-.01.18-1.27h.09c.02.37.12.66.3.88.18.22.39.34.63.38.18.03.34 0 .46-.09a.461.461 0 0 0 .19-.57.671.671 0 0 0-.16-.24c-.08-.08-.22-.19-.42-.33-.28-.2-.49-.35-.6-.48-.12-.13-.21-.26-.26-.4a.85.85 0 0 1-.04-.45c.04-.27.17-.48.39-.64.22-.16.49-.22.79-.17.11.02.21.04.31.09.07.03.16.08.26.15.1.07.18.11.22.11.04.01.08 0 .11-.02s.06-.08.1-.18l.07.01zm3.74.74-.17.9-.09-.02c-.01-.22-.04-.38-.09-.48a.795.795 0 0 0-.22-.27.745.745 0 0 0-.32-.1l-.25-.04-.47 2.58c-.03.17-.04.28-.03.33s.04.09.09.13c.05.04.12.07.22.09l.11.02-.02.09-1.75-.32.02-.09.11.02c.1.02.18.02.24-.01.05-.02.09-.05.12-.1.02-.04.05-.14.08-.31l.47-2.58-.24-.04c-.23-.04-.4-.02-.52.05-.17.11-.29.28-.38.52l-.09-.02.17-.9 3.01.55zm2.16.6c-.3-.07-.57.03-.8.3-.19.22-.34.58-.44 1.05-.13.57-.13 1.01.01 1.32.1.22.27.36.52.42.17.04.32.03.45-.02.17-.07.32-.21.45-.42s.24-.5.33-.87c.1-.44.14-.78.1-1.01-.03-.24-.1-.41-.21-.53a.717.717 0 0 0-.41-.24m.01-.17c.53.1.92.36 1.18.76.25.4.33.85.21 1.34-.1.42-.31.76-.62 1.02-.42.35-.93.45-1.53.32-.6-.14-1.01-.45-1.24-.92a1.82 1.82 0 0 1-.12-1.22c.11-.49.38-.86.79-1.11.4-.26.85-.32 1.33-.19m3.36 1.11-.73 2.55c-.04.14-.06.22-.05.25 0 .03.02.06.05.09.04.04.09.07.18.09.27.08.5.04.69-.1.26-.19.47-.55.62-1.07.12-.42.15-.77.09-1.06-.05-.23-.14-.4-.29-.52-.1-.08-.29-.16-.56-.23m-2.13 2.72.03-.09.11.03c.1.03.17.03.23.02a.29.29 0 0 0 .15-.09c.02-.03.06-.13.11-.3l.62-2.15c.05-.17.07-.27.06-.32 0-.05-.03-.09-.08-.14-.04-.05-.11-.08-.2-.11l-.11-.03.03-.09 1.46.42c.39.11.69.26.9.43.25.21.42.47.49.78a1.96 1.96 0 0 1-.32 1.56c-.13.17-.27.3-.43.4-.15.09-.32.15-.49.19-.18.03-.38.04-.61.02-.1-.01-.26-.04-.47-.1l-1.48-.43zm8.05-.98-.03.09a.52.52 0 0 0-.28.01c-.1.04-.29.17-.57.41l-1.11.91-.28.77c-.06.17-.09.27-.08.32s.03.09.07.14.1.09.19.12l.18.06-.03.09-1.8-.64.03-.09.17.06c.09.03.17.04.24.03.05-.01.1-.03.14-.08.03-.03.07-.13.13-.29l.23-.64-.26-1.64c-.05-.32-.1-.52-.14-.59s-.12-.12-.22-.16l.03-.09 1.53.55-.03.08-.07-.03a.437.437 0 0 0-.21-.03c-.05.01-.07.04-.09.07-.02.06 0 .22.04.5l.2 1.27.92-.76c.23-.19.35-.32.38-.39.01-.04.01-.09-.02-.13-.04-.06-.13-.12-.27-.18l.03-.09.98.35zM37.72 37.35l-5.31-14.31-5.45 14.31h10.76zm.65 1.93H26.24l-2.13 5.59c-.52 1.38-.78 2.4-.78 3.08 0 .54.23 1.01.68 1.42.45.41 1.43.68 2.94.8v.97h-9.86v-.97c1.31-.26 2.16-.6 2.54-1.02.78-.83 1.65-2.53 2.61-5.09l11.02-29.14h.81l10.9 29.45c.88 2.37 1.68 3.9 2.39 4.61.72.71 1.71 1.1 2.99 1.19v.97H38v-.97c1.25-.07 2.09-.3 2.53-.71.44-.4.66-.89.66-1.46 0-.77-.31-1.97-.92-3.63l-1.9-5.09z" data-color="1"/>
  <path fill="#4b5867" d="m43.3 14.92-.03 12.01h-1.12c-.36-2.3-1-4.14-1.94-5.5-.94-1.36-1.98-2.45-3.71-3.25-1.74-.8-3.2-.82-4.39-.82-.87 0-2.21.16-3.58 1.24s-2.06 2.32-2.06 3.7c0 1.06.43 2.02 1.3 2.89 1.25 1.28 2.64 2.31 7.17 4.81 3.77 2.08 7.03 3.37 8.43 4.3 1.4.93 2.48 2.02 3.23 3.28.75 1.26 1.13 2.58 1.12 3.95-.01 2.62-1.22 4.87-3.63 6.77-2.41 1.89-6.09 2.84-9.87 2.84-1.19 0-2.53.01-3.38-.1-.63-.08-2.48-.22-4.44-.75-1.96-.54-2.9-.8-3.43-.8-.5 0-.9.13-1.19.38-.29.25-.5.69-.65 1.28h-1.12V39.3h1.12c.52 2.48 1.23 4.34 2.11 5.57s1.94 2.25 3.76 3.07c1.82.81 4.4 1.22 6.58 1.22 2.52 0 5.09-.56 6.55-1.68 1.46-1.12 2.19-2.45 2.2-3.98 0-.85-.27-1.71-.83-2.57-.55-.87-1.41-1.67-2.58-2.42-.78-.51-3.69-1.73-7.02-3.56-3.41-1.87-4.24-2.68-5.73-3.67-1.48-.99-2.61-2.08-3.37-3.27a7.115 7.115 0 0 1-1.15-3.94c0-2.49 1.13-4.64 3.39-6.44 2.26-1.8 5.36-2.4 6.88-2.4 2.18 0 3.61.15 6.06 1.06 1.13.43 1.63.64 2.1.64.53 0 .95-.13 1.29-.4.33-.27.6-.8.81-1.6h1.12z" data-color="3"/>
  <defs>
    <path id="e" d="M42.18 14.92c-.2.8-.47 1.34-.81 1.6-.33.27-.76.4-1.29.4-.46 0-.97-.21-2.1-.64-2.44-.91-3.88-1.06-6.06-1.06-1.51 0-4.61.6-6.88 2.4-2.26 1.8-3.39 3.95-3.39 6.44 0 1.43.38 2.75 1.15 3.94.77 1.19 1.89 2.28 3.37 3.27 1.48.99 2.32 1.8 5.73 3.67 3.33 1.83 6.24 3.05 7.02 3.56 1.17.75 2.03 1.56 2.58 2.42.55.87.83 1.73.83 2.58 0 1.53-.73 2.85-2.2 3.97-1.46 1.12-4.04 1.68-6.55 1.68-2.17 0-4.76-.41-6.58-1.22-1.82-.82-2.87-1.84-3.76-3.07-.89-1.23-1.59-3.09-2.12-5.57H20v11.85h1.12c.15-.58.36-1.02.65-1.28.29-.25.69-.38 1.19-.38.52 0 1.46.27 3.43.8 1.96.53 3.81.67 4.44.75.85.11 2.19.1 3.38.1 3.78 0 7.47-.94 9.88-2.84 2.41-1.89 3.62-4.15 3.62-6.77 0-1.38-.37-2.69-1.13-3.95-.75-1.26-1.83-2.35-3.23-3.28-1.4-.93-4.66-2.21-8.43-4.3-4.52-2.5-5.92-3.53-7.17-4.81-.87-.87-1.3-1.83-1.3-2.89 0-1.38.69-2.62 2.06-3.7a5.604 5.604 0 0 1 3.58-1.24c1.19 0 2.65.01 4.39.82 1.74.8 2.78 1.89 3.71 3.25.94 1.37 1.58 3.2 1.94 5.5h1.12l.03-12.01h-1.1z"/>
  </defs>
  <clipPath id="f">
    <use xlink:href="#e" overflow="visible"/>
  </clipPath>
  <path fill="#00b3d1" d="M47.9 14.67v36.52H19.83V14.67H47.9z" clip-path="url(#f)" data-color="2"/>
  <path fill="#fff" d="m32.34 17.36.92-2.43c.06-.14.21-.31.36-.31h.08c.15 0 .32.17.38.31l1.02 2.75c.17.42-.25.26-.61.26l-1.96.01c-.38 0-.37-.17-.19-.59m12.63 27.02c.88 2.37 1.67 3.9 2.39 4.61.72.71 1.71 1.1 2.99 1.19v.97H38v-.97c1.25-.07 2.09-.3 2.53-.71.44-.4.66-.89.66-1.46 0-.77-.31-1.98-.92-3.63l-1.89-5.09.57-.79c1.56.79 5.28 3.47 6.02 5.88" data-color="1"/>
</svg>
